<?xml version="1.0"?>
<svg xmlns="http://www.w3.org/2000/svg" id="Layer_3" data-name="Layer 3" viewBox="0 0 64 64" width="512" height="512"><rect x="14.999" y="50.998" width="3.001" height="2.001"/><path d="M12,43H4a1,1,0,0,0-1,1v1.585l3.707,3.707L5.292,50.706,3,48.414v5.17l3.707,3.707L5.292,58.706,3,56.414V60a1,1,0,0,0,1,1h8a1,1,0,0,0,1-1V56.415l-2.292,2.292L9.292,57.292,13,53.585V48.414l-2.292,2.292L9.292,49.291,13,45.584V44A1,1,0,0,0,12,43Z"/><path d="M16,30V28H13.9a5.006,5.006,0,0,1,0,2Z"/><path d="M32,34a3,3,0,1,0,3,3A3,3,0,0,0,32,34Z"/><path d="M39,51H25a1,1,0,1,0,0,2H39a1,1,0,0,0,0-2Z"/><path d="M27.974,23h8.05a15.759,15.759,0,0,1,2.67-7.621A8,8,0,0,0,31.771,3,8.064,8.064,0,0,0,24,10.94,7.961,7.961,0,0,0,25.316,15.4,15.606,15.606,0,0,1,27.974,23ZM26,12h1V11H26V9h1V8a1,1,0,0,1,1-1h1V5h2V7h2V5h2V7h1a1,1,0,0,1,1,1V9h1v2H37v1h1v2H37v2a1,1,0,0,1-1,1H35v2H33V17H31v2H29V17H28a1,1,0,0,1-1-1V14H26Z"/><path d="M35,9H29v6h6Zm-2,4H31V11h2Z"/><path d="M10.585,18,15,13.585V7.414l-3-3V7.585l.708.707A1,1,0,0,1,13,9v3a.993.993,0,0,1-.293.707l-3,3a1,1,0,0,1-1.414,0l-3-3A1,1,0,0,1,5,12V9a1,1,0,0,1,.292-.708L6,7.585V4.414l-3,3v6.171L7.413,18Z"/><path d="M6,29a3,3,0,1,0,3-3A3,3,0,0,0,6,29Z"/><path d="M10,24.1V20H8v4.1a5.011,5.011,0,0,1,2,0Z"/><path d="M60,43H52a1,1,0,0,0-1,1v1.585l3.707,3.707-1.415,1.415L51,48.414v5.17l3.707,3.707-1.415,1.415L51,56.414V60a1,1,0,0,0,1,1h8a1,1,0,0,0,1-1V56.415l-2.292,2.292-1.415-1.415L61,53.585V48.414l-2.292,2.292-1.415-1.415L61,45.584V44A1,1,0,0,0,60,43Z"/><path d="M56,24.1V20H54v4.1a5.006,5.006,0,0,1,2,0Z"/><path d="M48,28v2h2.1a5,5,0,0,1,0-2Z"/><path d="M52,29a3,3,0,1,0,3-3A3,3,0,0,0,52,29Z"/><rect x="45.999" y="50.998" width="3.001" height="2.001"/><path d="M46,26a1,1,0,0,0-1-1H19a1,1,0,0,0-1,1V36a1,1,0,0,0,1,1,1,1,0,0,1,1,1V56a1,1,0,0,0,1,1H43a1,1,0,0,0,1-1V38a1,1,0,0,1,1-1,1,1,0,0,0,1-1ZM39,55H25a3,3,0,1,1,0-6H39a3,3,0,0,1,0,6Zm3-16a1,1,0,0,1-1,1h-.522a9.026,9.026,0,0,1-.362.874l.369.37a1,1,0,0,1,0,1.414l-2.828,2.828a1,1,0,0,1-1.415,0l-.368-.369a9.131,9.131,0,0,1-.874.362V46a1,1,0,0,1-1,1H30a1,1,0,0,1-1-1v-.521a9.026,9.026,0,0,1-.874-.362l-.37.369a1,1,0,0,1-1.414,0l-2.828-2.828a1,1,0,0,1,0-1.414l.369-.37A9.026,9.026,0,0,1,23.521,40H23a1,1,0,0,1-1-1V35a1,1,0,0,1,1-1h.521a9.008,9.008,0,0,1,.362-.873l-.369-.37a1,1,0,0,1,0-1.414l2.828-2.828a1,1,0,0,1,1.414,0l.37.37A8.781,8.781,0,0,1,29,28.522V28a1,1,0,0,1,1-1h4a1,1,0,0,1,1,1v.522a8.763,8.763,0,0,1,.873.362l.369-.369a1.032,1.032,0,0,1,1.415,0l2.828,2.828a1,1,0,0,1,0,1.414l-.369.369a9.131,9.131,0,0,1,.362.874H41a1,1,0,0,1,1,1Z"/><path d="M58,4.414V7.585l.707.707A1,1,0,0,1,59,9v3a1,1,0,0,1-.293.707l-3,3a1,1,0,0,1-1.415,0l-3-3A1,1,0,0,1,51,12V9a1,1,0,0,1,.292-.708L52,7.585V4.413l-3,3v6.171L53.414,18h3.171L61,13.585V7.414Z"/><path d="M38.769,35.248a7,7,0,0,0-.745-1.8,1,1,0,0,1,.154-1.215l.185-.185-1.414-1.414-.184.184a1,1,0,0,1-1.216.155,6.979,6.979,0,0,0-1.8-.746,1,1,0,0,1-.75-.967V29H31v.262a1,1,0,0,1-.751.968,6.955,6.955,0,0,0-1.8.745,1,1,0,0,1-1.215-.154l-.185-.186L25.635,32.05l.185.185a1,1,0,0,1,.154,1.215,7,7,0,0,0-.745,1.8,1,1,0,0,1-.967.751H24v2h.262a1,1,0,0,1,.967.751,6.97,6.97,0,0,0,.745,1.8,1,1,0,0,1-.154,1.215l-.185.185,1.415,1.415.185-.185a1,1,0,0,1,1.215-.154,6.97,6.97,0,0,0,1.8.745,1,1,0,0,1,.751.967V45h2v-.262a1,1,0,0,1,.751-.967,7.019,7.019,0,0,0,1.8-.745,1,1,0,0,1,1.216.154l.183.184,1.415-1.414-.185-.185a1,1,0,0,1-.154-1.215,6.97,6.97,0,0,0,.745-1.8A1,1,0,0,1,39.736,38H40V36h-.263A1,1,0,0,1,38.769,35.248ZM32,42a5,5,0,1,1,5-5A5,5,0,0,1,32,42Z"/></svg>
