<svg id="filled_outline" height="512" viewBox="0 0 512 512" width="512" xmlns="http://www.w3.org/2000/svg" data-name="filled outline"><path d="m72 216h16l16-24h16l16-32h-64z" fill="#ffb0a1"/><path d="m88 152v24l-16 16h-8a16 16 0 0 1 -16-16v-24z" fill="#ff9178"/><path d="m176 272h38.42878a56 56 0 0 1 42.31859 19.32389l95.25263 109.90688v54.76923h-24l-104-120v64h24v56h-24v40h-200v-167.43151a56.56848 56.56848 0 0 1 56.56849-56.56849h47.43151" fill="#548aff"/><path d="m176 232v48a23.59674 23.59674 0 0 1 -1.37988 8 23.99641 23.99641 0 0 1 -46.62012-8v-48z" fill="#ffceb6"/><path d="m128 224v16a32 32 0 0 0 32 32 32 32 0 0 0 32-32v-40h-40z" fill="#ffceb6"/><path d="m192 200 7.80063-3.90031a14.8328 14.8328 0 0 0 8.19937-13.26683 14.8328 14.8328 0 0 0 -14.8328-14.83286h-9.1672l-32 32z" fill="#c47220"/><path d="m248 400h37.085a56 56 0 0 1 43.72865 21.01708l12.59073 15.73841a11.845 11.845 0 0 1 2.59562 7.39951 11.845 11.845 0 0 1 -11.845 11.845h-.20668a11.845 11.845 0 0 1 -7.107-2.369l-28.84132-21.631-32 24h-16z" fill="#ffceb6"/><path d="m200 456h144a0 0 0 0 1 0 0v32a0 0 0 0 1 0 0h-128a16 16 0 0 1 -16-16v-16a0 0 0 0 1 0 0z" fill="#ffa100"/><path d="m344 344h144v144h-144z" fill="#ffc431"/><circle cx="416" cy="416" fill="#ffd873" r="16"/><path d="m160 136v8a16 16 0 0 1 -16 16h-88a16 16 0 0 1 -16-16v-8a48 48 0 0 1 48-48h24a48 48 0 0 1 48 48z" fill="#ef5e3b"/><rect fill="#ffc431" height="240" rx="16" width="216" x="272" y="24"/><path d="m328 96h112v32h-112z" fill="#08d175"/><path d="m328 128h88v32h-88z" fill="#3cde8d"/><path d="m328 64h64v32h-64z" fill="#02c26a"/><path d="m488 336h-144a8.00008 8.00008 0 0 0 -8 8v26.554l-73.207-84.46949a63.96505 63.96505 0 0 0 -48.36429-22.08451h-22.45071a39.79015 39.79015 0 0 0 8.022-24v-35.05566l3.37793-1.689a22.83285 22.83285 0 0 0 -10.21093-43.25534h-9.167a8.00076 8.00076 0 0 0 -5.65723 2.34326l-56 56a8.00035 8.00035 0 0 0 -2.34277 5.65674v40h-39.43164a64.64128 64.64128 0 0 0 -64.56836 64.56836v167.43164h16v-124.906c.937 1.06714 1.898 2.11792 2.91113 3.13111l71.0293 71.02978a63.58247 63.58247 0 0 0 45.25586 18.74511h40.80371v8a24.02718 24.02718 0 0 0 24 24h272a8.00008 8.00008 0 0 0 8-8v-144a8.00008 8.00008 0 0 0 -8-8zm-158.3584 111.231-28.8418-21.6309a7.998 7.998 0 0 0 -9.5996 0l-29.8672 22.3999h-5.333v-40h29.085a47.76324 47.76324 0 0 1 37.48145 18.01465l12.59082 15.73877a3.84453 3.84453 0 0 1 -3.002 6.24658h-.207a3.8695 3.8695 0 0 1 -2.30667-.769zm-25.6416.769h-16l8-6zm-72-56v-34.7085l30.36987 34.7085zm-96-120.022a39.9691 39.9691 0 0 0 32 7.217v.805a16 16 0 0 1 -32 0zm51.31348-95.978h5.85352a6.83278 6.83278 0 0 1 3.05567 12.94434l-6.11134 3.05566h-18.79785zm-51.31348 51.314 19.31348-19.314h28.68652v32a24 24 0 0 1 -48 0zm-18.74512 206.62741-71.02929-71.02979a48.56836 48.56836 0 0 1 34.34277-82.91162h39.43164a32 32 0 0 0 64 0h30.42871a47.97281 47.97281 0 0 1 36.27246 16.563l85.29883 98.42162v22.20923l-.93945-1.17432a63.6864 63.6864 0 0 0 -49.97555-24.01953h-1.45483l-53.60962-61.26807a8 8 0 0 0 -14.02055 5.26807v56h-52.68652l-53.65625-53.65674-11.31446 11.31348 56 56a8.00076 8.00076 0 0 0 5.65723 2.34326h80v40h-88.80371a47.68384 47.68384 0 0 1 -33.94141-14.05859zm90.74512 38.05859v-8h128v16h-120a8.00917 8.00917 0 0 1 -8-8zm272 8h-128v-128h128z"/><path d="m416 440a24 24 0 1 0 -24-24 24.02718 24.02718 0 0 0 24 24zm0-32a8 8 0 1 1 -8 8 8.00917 8.00917 0 0 1 8-8z"/><path d="m472 16h-184a24.02718 24.02718 0 0 0 -24 24v16h-64a8.00076 8.00076 0 0 0 -5.65723 2.34326l-40.49707 40.49713a55.86763 55.86763 0 0 0 -41.8457-18.84039h-24a56.06322 56.06322 0 0 0 -56 56v8a23.9434 23.9434 0 0 0 8 17.86926v14.13074a24.02718 24.02718 0 0 0 24 24v16a8.00008 8.00008 0 0 0 8 8h16a7.99943 7.99943 0 0 0 6.65625-3.5625l13.625-20.4375h11.71875a7.99979 7.99979 0 0 0 7.15527-4.42236l13.78882-27.57764h3.05591a24.02718 24.02718 0 0 0 24-24v-8a55.646 55.646 0 0 0 -5.1875-23.49872l40.50098-40.50128h60.68652v176a24.02718 24.02718 0 0 0 24 24h184a24.02718 24.02718 0 0 0 24-24v-208a24.02718 24.02718 0 0 0 -24-24zm-416 160v-8h24v4.68652l-11.314 11.31348h-4.686a8.00917 8.00917 0 0 1 -8-8zm59.05566 8h-11.05566a7.99943 7.99943 0 0 0 -6.65625 3.5625l-13.625 20.4375h-3.71875v-12.686l13.65723-13.65722a8.00035 8.00035 0 0 0 2.34277-5.65678v-8h27.05566zm36.94434-40a8.00917 8.00917 0 0 1 -8 8h-35.05566l8-16h19.05566v-16h-20.686l-13.65673-13.65674-11.3145 11.31348 11.9231 11.92316-11.20996 22.4201h-35.05591a8.00917 8.00917 0 0 1 -8-8v-8a40.037 40.037 0 0 1 .80493-8h11.88159l13.65625 13.65674 11.31446-11.31348-16-16a8.00076 8.00076 0 0 0 -5.65723-2.34326h-7.978a39.96261 39.96261 0 0 1 31.978-16h24a40.04552 40.04552 0 0 1 40 40zm328 104a8.00917 8.00917 0 0 1 -8 8h-184a8.00917 8.00917 0 0 1 -8-8v-208a8.00917 8.00917 0 0 1 8-8h184a8.00917 8.00917 0 0 1 8 8z"/><path d="m296 72h16v16h-16z"/><path d="m296 104h16v16h-16z"/><path d="m296 136h16v16h-16z"/><path d="m328 168h88a8.00008 8.00008 0 0 0 8-8v-24h16a8.00008 8.00008 0 0 0 8-8v-32a8.00008 8.00008 0 0 0 -8-8h-40v-24a8.00008 8.00008 0 0 0 -8-8h-64a8.00008 8.00008 0 0 0 -8 8v96a8.00008 8.00008 0 0 0 8 8zm80-16h-72v-16h72zm24-32h-96v-16h96zm-96-48h48v16h-48z"/><path d="m328 184h24v16h-24z"/><path d="m368 184h88v16h-88z"/><path d="m304 216h88v16h-88z"/><path d="m408 216h48v16h-48z"/></svg>