<?xml version="1.0"?>
<svg xmlns="http://www.w3.org/2000/svg" viewBox="0 0 64 64" width="512" height="512"><path d="m2 2h60v60h-60z" fill="#a6ddff"/><path d="m61 2h-59v2h6v3h2v-3h6v3h2v-3h6v3h2v-3h6v3h2v-3h6v3h2v-3h7v3h2v-3h9v9h-3v2h3v6h-3v2h3v6h-3v2h3v6h-3v2h3v6h-3v2h3v7h-3v2h3v6h2v-59a1 1 0 0 0 -1-1z" fill="#4ea3ea"/><path d="m42 19 2.293 2.293-12.24417 12.24411-6.29639-7.1958a.99966.99966 0 0 0 -1.44189-.06543l-21 20 1.3789 1.44824 20.24463-19.28076 6.31348 7.21533a1.00041 1.00041 0 0 0 .71924.34082.978.978 0 0 0 .7402-.29251l13-13 2.293 2.293 4-10z" fill="#f73445"/><path d="m22 42h-1v-3h-2v3h-1a1 1 0 0 0 -1 1v9a1 1 0 0 0 1 1h1v3h2v-3h1a1 1 0 0 0 1-1v-9a1 1 0 0 0 -1-1z" fill="#116aea"/><path d="m34 45h-1v-3h-2v3h-1a1 1 0 0 0 -1 1v7a1 1 0 0 0 1 1h1v4h2v-4h1a1 1 0 0 0 1-1v-7a1 1 0 0 0 -1-1z" fill="#f22f46"/><path d="m45 37h-1v-2h-2v2h-1a1 1 0 0 0 -1 1v6a1 1 0 0 0 1 1h1v4h2v-4h1a1 1 0 0 0 1-1v-6a1 1 0 0 0 -1-1z" fill="#116aea"/></svg>
