<?xml version="1.0"?>
<svg xmlns="http://www.w3.org/2000/svg" xmlns:xlink="http://www.w3.org/1999/xlink" xmlns:svgjs="http://svgjs.com/svgjs" version="1.1" width="512" height="512" x="0" y="0" viewBox="0 0 512 512" style="enable-background:new 0 0 512 512" xml:space="preserve" class=""><g><g xmlns="http://www.w3.org/2000/svg"><g><path d="m24 488v-36.081a30 30 0 0 1 18.358-27.649l133.642-56.27h160l133.642 56.27a30 30 0 0 1 18.358 27.649v36.081z" fill="#1273eb" data-original="#79d8eb" style="" class=""/><path d="m336 368-80 72-80-72 32-72h96z" fill="#ffffff" data-original="#ffd4cf" style="" class=""/><path d="m351.416 312.292-95.416 47.708-95.416-47.708a30 30 0 0 1 -16.584-26.833v-165.459h224v165.459a30 30 0 0 1 -16.584 26.833z" fill="#1273eb" data-original="#dcf9fe" style="" class=""/><path d="m208 280-14.545 48.727 62.545 31.273 62.545-31.273-14.545-48.727z" fill="#1273eb" data-original="#c9eff7" style="" class=""/><g><path d="m336 136h-160v113.4a30 30 0 0 0 12.118 24.088l43.918 32.6a30 30 0 0 0 17.882 5.912h12.082a30 30 0 0 0 18-6l44-33a30 30 0 0 0 12-24z" fill="#ffffff" data-original="#ffd4cf" style="" class=""/><path d="m176 240v9.4a30 30 0 0 0 12.118 24.088l43.918 32.6a30 30 0 0 0 17.882 5.912h12.082a30 30 0 0 0 18-6l44-33a30 30 0 0 0 12-24v-9l-80-24z" fill="#1273eb" data-original="#79d8eb" style="" class=""/></g></g><path d="m368 120h-224v-24l60.284-60.284a40 40 0 0 1 28.285-11.716h46.862a40 40 0 0 1 28.285 11.716l60.284 60.284z" fill="#1273eb" data-original="#dcf9fe" style="" class=""/><path d="m264 272v-53.6l-8-2.4-8 2.4v53.6z" fill="#1273eb" data-original="#dcf9fe" style="" class=""/><path d="m248 24h16v56h-16z" fill="#1273eb" data-original="#79d8eb" style="" class=""/><g fill="#804913"><path d="m288 168h16v24h-16z" fill="#1273eb" data-original="#804913" style="" class=""/><path d="m208 168h16v24h-16z" fill="#1273eb" data-original="#804913" style="" class=""/></g><rect fill="#1273eb" height="32" rx="10" width="256" x="128" y="104" data-original="#79d8eb" style="" class=""/></g></g></svg>
