<svg id="Layer_3" height="512" viewBox="0 0 64 64" width="512" xmlns="http://www.w3.org/2000/svg" data-name="Layer 3"><path d="m12 42a10 10 0 0 1 0-20c.067 0 .132.009.2.01a9.977 9.977 0 0 1 11.678-7.828 9.98 9.98 0 0 1 16.246 0 9.977 9.977 0 0 1 11.676 7.828c.067 0 .132-.01.2-.01a10 10 0 0 1 0 20z" fill="#f2b9a1"/><path d="m19 22h-2v-11.586l-4.888-4.888 1.414-1.414 5.181 5.18a1 1 0 0 1 .293.708z" fill="#f0ae42"/><path d="m47 22h-2v-12a1 1 0 0 1 .292-.707l5.192-5.193 1.416 1.415-4.9 4.9z" fill="#f0ae42"/><path d="m27 5h2v15h-2z" fill="#f8ced7"/><path d="m35 5h2v15h-2z" fill="#f8ced7"/><path d="m55.01 3.482h2v9.056h-2z" fill="#f0ae42" transform="matrix(.707 -.707 .707 .707 10.741 41.951)"/><path d="m3.463 7.015h9.04v2h-9.04z" fill="#f0ae42" transform="matrix(.707 -.707 .707 .707 -3.329 7.993)"/><path d="m6.585 31h-4.534a10.007 10.007 0 0 0 -.051 1c0 .337.018.671.05 1h4.95a1 1 0 0 0 .708-.293l3-3-1.416-1.415z" fill="#fbe1ca"/><path d="m54.707 28.292-1.415 1.415 3 3a1 1 0 0 0 .708.293h4.95c.032-.329.05-.663.05-1a10.007 10.007 0 0 0 -.051-1h-4.535z" fill="#fbe1ca"/><path d="m16 39v-3h-2v2.585l-3.318 3.315a10.044 10.044 0 0 0 1.318.1h1.413l2.294-2.294a1 1 0 0 0 .293-.706z" fill="#fbe1ca"/><path d="m50 38.585v-2.585h-2v3a1 1 0 0 0 .292.707l2.293 2.293h1.415a10.044 10.044 0 0 0 1.318-.1z" fill="#fbe1ca"/><path d="m14.521 29h3.479a1 1 0 0 0 .707-.292l2-2-1.415-1.415-1.707 1.707h-4.06a8.936 8.936 0 0 1 -.525-3h-2a11.013 11.013 0 0 0 11 11v-2a9 9 0 0 1 -7.479-4z" fill="#fbe1ca"/><path d="m51 24a8.937 8.937 0 0 1 -.526 3h-4.06l-1.707-1.708-1.415 1.415 2 2a1 1 0 0 0 .708.293h3.478a9 9 0 0 1 -7.478 4v2a11.013 11.013 0 0 0 11-11z" fill="#fbe1ca"/><path d="m30 37h-2v-5.586l-2.707-2.707 1.415-1.415 3 3a1 1 0 0 1 .292.708z" fill="#fbe1ca"/><path d="m36 37h-2v-6a1 1 0 0 1 .292-.708l3-3 1.415 1.415-2.707 2.707z" fill="#fbe1ca"/><circle cx="12" cy="4" fill="#559b2d" r="2"/><circle cx="28" cy="4" fill="#b52f28" r="2"/><circle cx="52" cy="4" fill="#b52f28" r="2"/><circle cx="60" cy="12" fill="#559b2d" r="2"/><circle cx="36" cy="4" fill="#559b2d" r="2"/><circle cx="32" cy="49" fill="#213d68" r="13"/><path d="m26 43h12v12h-12z" fill="#f0ae42"/><path d="m26 54.954a12.351 12.351 0 0 0 7.39-11.308c0-.218-.022-.431-.033-.646h-7.357z" fill="#f9d266"/><path d="m30 47h4v4h-4z" fill="#d5883e"/><g fill="#fce797"><path d="m27 40h2v3h-2z"/><path d="m31 40h2v3h-2z"/><path d="m35 40h2v3h-2z"/><path d="m27 55h2v3h-2z"/><path d="m31 55h2v3h-2z"/><path d="m35 55h2v3h-2z"/><path d="m38 44h3v2h-3z"/><path d="m38 48h3v2h-3z"/><path d="m38 52h3v2h-3z"/><path d="m23 44h3v2h-3z"/><path d="m23 48h3v2h-3z"/><path d="m23 52h3v2h-3z"/></g><circle cx="4" cy="12" fill="#b52f28" r="2"/><path d="m30 47v4h.946a12.315 12.315 0 0 0 1.971-4z" fill="#f3a748"/><path d="m52.587 21.03a11.02 11.02 0 0 0 -5.587-6.81v-3.806l3.714-3.714a2.9 2.9 0 0 0 2.571 0l4.015 4.015a2.964 2.964 0 0 0 -.3 1.285 3 3 0 1 0 3-3 2.964 2.964 0 0 0 -1.285.3l-4.015-4.016a2.963 2.963 0 0 0 .3-1.284 3 3 0 1 0 -6 0 2.968 2.968 0 0 0 .3 1.285l-4.008 4.007a1 1 0 0 0 -.292.708v3.426a10.9 10.9 0 0 0 -3-.426 11.191 11.191 0 0 0 -1.443.105 11.057 11.057 0 0 0 -3.557-2.891v-3.4a3 3 0 1 0 -2 0v2.613a10.756 10.756 0 0 0 -6 0v-2.612a3 3 0 1 0 -2 0v3.4a11.06 11.06 0 0 0 -3.559 2.891 11.188 11.188 0 0 0 -1.441-.106 10.959 10.959 0 0 0 -3 .426v-3.426a1 1 0 0 0 -.293-.708l-4.007-4.008a2.963 2.963 0 0 0 .3-1.284 3 3 0 1 0 -6 0 2.968 2.968 0 0 0 .3 1.285l-4.016 4.015a2.963 2.963 0 0 0 -1.284-.3 3 3 0 1 0 3 3 2.964 2.964 0 0 0 -.3-1.285l4.014-4.015a2.893 2.893 0 0 0 2.57 0l3.716 3.714v3.8a11.036 11.036 0 0 0 -5.582 6.815 10.993 10.993 0 0 0 .582 21.971h7.37a14 14 0 1 0 25.259 0h7.371a10.993 10.993 0 0 0 .588-21.97zm7.413-10.03a1 1 0 1 1 -1 1 1 1 0 0 1 1-1zm-8-8a1 1 0 1 1 -1 1 1 1 0 0 1 1-1zm-16 0a1 1 0 1 1 -1 1 1 1 0 0 1 1-1zm-8 0a1 1 0 1 1 -1 1 1 1 0 0 1 1-1zm-24 10a1 1 0 1 1 1-1 1 1 0 0 1 -1 1zm8-8a1 1 0 1 1 1-1 1 1 0 0 1 -1 1zm20 56a12 12 0 1 1 12-12 12.013 12.013 0 0 1 -12 12zm20.394-20.021-2.394-2.394v-2.585h-2v3a1 1 0 0 0 .292.707l1.292 1.293h-6.113a14.032 14.032 0 0 0 -7.471-5.41v-4.176l2.707-2.707-1.415-1.415-3 3a1 1 0 0 0 -.292.708v4.16a12.586 12.586 0 0 0 -4 0v-4.16a1 1 0 0 0 -.292-.708l-3-3-1.415 1.415 2.707 2.707v4.176a14.04 14.04 0 0 0 -7.473 5.41h-6.113l1.293-1.293a1 1 0 0 0 .293-.707v-3h-2v2.585l-2.394 2.394a9 9 0 0 1 -8.548-7.979h3.942a1 1 0 0 0 .708-.293l3-3-1.416-1.415-2.707 2.708h-3.526a9.011 9.011 0 0 1 7.988-7.948c-.027.313-.047.628-.047.948a11.013 11.013 0 0 0 11 11v-2a9 9 0 0 1 -7.478-4h3.478a1 1 0 0 0 .708-.293l2-2-1.415-1.415-1.708 1.708h-4.061a8.952 8.952 0 0 1 3.476-10.479v5.479h2v-6.475a8.926 8.926 0 0 1 3-.525c.07 0 .14.008.21.01a10.908 10.908 0 0 0 -1.21 4.99h2a9 9 0 0 1 4-7.478v7.478h2v-8.475a8.837 8.837 0 0 1 6 0v8.475h2v-7.478a9 9 0 0 1 4 7.478h2a10.909 10.909 0 0 0 -1.21-4.99c.071 0 .14-.01.211-.01a8.935 8.935 0 0 1 3 .52v6.48h2v-5.472a8.938 8.938 0 0 1 3.473 10.472h-4.06l-1.707-1.708-1.415 1.415 2 2a1 1 0 0 0 .708.293h3.478a9 9 0 0 1 -7.478 4v2a11.014 11.014 0 0 0 11-11c0-.317-.021-.633-.048-.948a9.012 9.012 0 0 1 7.988 7.948h-3.526l-2.707-2.708-1.415 1.415 3 3a1 1 0 0 0 .708.293h3.941a9 9 0 0 1 -8.547 7.979z"/><path d="m39 43a1 1 0 0 0 -1-1h-1v-2h-2v2h-2v-2h-2v2h-2v-2h-2v2h-1a1 1 0 0 0 -1 1v1h-2v2h2v2h-2v2h2v2h-2v2h2v1a1 1 0 0 0 1 1h1v2h2v-2h2v2h2v-2h2v2h2v-2h1a1 1 0 0 0 1-1v-1h2v-2h-2v-2h2v-2h-2v-2h2v-2h-2zm-2 11h-10v-10h10z"/><path d="m30 52h4a1 1 0 0 0 1-1v-4a1 1 0 0 0 -1-1h-4a1 1 0 0 0 -1 1v4a1 1 0 0 0 1 1zm1-4h2v2h-2z"/></svg>