<?xml version="1.0"?>
<svg xmlns="http://www.w3.org/2000/svg" xmlns:xlink="http://www.w3.org/1999/xlink" xmlns:svgjs="http://svgjs.com/svgjs" version="1.1" width="512" height="512" x="0" y="0" viewBox="0 0 64 64" style="enable-background:new 0 0 512 512" xml:space="preserve" class=""><g><g xmlns="http://www.w3.org/2000/svg" id="face_detection" data-name="face detection"><path d="m4 4h7v-2h-8a1 1 0 0 0 -1 1v8h2z" fill="#73aec8" data-original="#000000" style="" class=""/><path d="m61 2h-8v2h7v7h2v-8a1 1 0 0 0 -1-1z" fill="#73aec8" data-original="#000000" style="" class=""/><path d="m4 53h-2v8a1 1 0 0 0 1 1h8v-2h-7z" fill="#73aec8" data-original="#000000" style="" class=""/><path d="m60 60h-7v2h8a1 1 0 0 0 1-1v-8h-2z" fill="#73aec8" data-original="#000000" style="" class=""/><path d="m2 31h2v2h-2z" fill="#73aec8" data-original="#000000" style="" class=""/><path d="m60 31h2v2h-2z" fill="#73aec8" data-original="#000000" style="" class=""/><path d="m6 7v10a1 1 0 0 0 1 1h24a1 1 0 0 0 1-1v-10a1 1 0 0 0 -1-1h-24a1 1 0 0 0 -1 1zm2 1h22v8h-22z" fill="#73aec8" data-original="#000000" style="" class=""/><path d="m50 12h2v2h-2z" fill="#73aec8" data-original="#000000" style="" class=""/><path d="m54 12h4v2h-4z" fill="#73aec8" data-original="#000000" style="" class=""/><path d="m50 8h8v2h-8z" fill="#73aec8" data-original="#000000" style="" class=""/><path d="m50 16h8v2h-8z" fill="#73aec8" data-original="#000000" style="" class=""/><path d="m41.414 14h6.586v-2h-7a1 1 0 0 0 -.707.293l-4 4 1.414 1.414z" fill="#73aec8" data-original="#000000" style="" class=""/><path d="m48 42v-2a2.994 2.994 0 0 0 -2.624-2.962l1.159-1.159a4.969 4.969 0 0 0 1.465-3.536v-1.343a11.013 11.013 0 0 0 -11-11h-10a11.013 11.013 0 0 0 -11 11v1.343a4.969 4.969 0 0 0 1.465 3.536l1.159 1.159a2.994 2.994 0 0 0 -2.624 2.962v2a3 3 0 0 0 3 3h1.051a11.99 11.99 0 0 0 23.9 0h1.049a3 3 0 0 0 3-3zm-2-2v2a1 1 0 0 1 -1 1h-1v-4h1a1 1 0 0 1 1 1zm-28-9a9.01 9.01 0 0 1 9-9h10a9.01 9.01 0 0 1 9 9v1.343a2.98 2.98 0 0 1 -.879 2.122l-1.121 1.121v-2.586a1 1 0 0 0 -.742-.966l-15-4a.992.992 0 0 0 -.754.1l-7 4a1 1 0 0 0 -.504.866v2.586l-1.121-1.121a2.984 2.984 0 0 1 -.879-2.122zm0 11v-2a1 1 0 0 1 1-1h1v4h-1a1 1 0 0 1 -1-1zm24 2a10 10 0 0 1 -20 0v-10.42l6.14-3.508 13.86 3.697z" fill="#73aec8" data-original="#000000" style="" class=""/><path d="m5 29a3 3 0 1 0 -3-3 3 3 0 0 0 3 3zm0-4a1 1 0 1 1 -1 1 1 1 0 0 1 1-1z" fill="#73aec8" data-original="#000000" style="" class=""/><path d="m59 35a3 3 0 1 0 3 3 3 3 0 0 0 -3-3zm0 4a1 1 0 1 1 1-1 1 1 0 0 1 -1 1z" fill="#73aec8" data-original="#000000" style="" class=""/><path d="m56 27h6v2h-6z" fill="#73aec8" data-original="#000000" style="" class=""/><path d="m56 23h2v2h-2z" fill="#73aec8" data-original="#000000" style="" class=""/><path d="m60 23h2v2h-2z" fill="#73aec8" data-original="#000000" style="" class=""/><path d="m2 35h6v2h-6z" fill="#73aec8" data-original="#000000" style="" class=""/><path d="m2 39h2v2h-2z" fill="#73aec8" data-original="#000000" style="" class=""/><path d="m6 39h2v2h-2z" fill="#73aec8" data-original="#000000" style="" class=""/><path d="m6.892 46.5-1.731 1a31.226 31.226 0 0 0 11.384 11.366l1-1.732a29.217 29.217 0 0 1 -10.653-10.634z" fill="#73aec8" data-original="#000000" style="" class=""/><path d="m58.866 47.455-1.732-1a29.217 29.217 0 0 1 -10.634 10.653l1 1.731a31.226 31.226 0 0 0 11.366-11.384z" fill="#73aec8" data-original="#000000" style="" class=""/><path d="m6.586 55h2.828v2h-2.828z" transform="matrix(.707 -.707 .707 .707 -37.255 22.059)" fill="#73aec8" data-original="#000000" style="" class=""/><path d="m55 54.586h2v2.828h-2z" transform="matrix(.707 -.707 .707 .707 -23.196 56)" fill="#73aec8" data-original="#000000" style="" class=""/><path d="m6 31h2v2h-2z" fill="#73aec8" data-original="#000000" style="" class=""/><path d="m56 31h2v2h-2z" fill="#73aec8" data-original="#000000" style="" class=""/><path d="m27 9h2v2h-2z" fill="#73aec8" data-original="#000000" style="" class=""/></g></g></svg>
