<?xml version="1.0"?>
<svg xmlns="http://www.w3.org/2000/svg" xmlns:xlink="http://www.w3.org/1999/xlink" xmlns:svgjs="http://svgjs.com/svgjs" version="1.1" width="512" height="512" x="0" y="0" viewBox="0 0 512 512" style="enable-background:new 0 0 512 512" xml:space="preserve" class=""><g><g xmlns="http://www.w3.org/2000/svg"><path d="m506.773 260.784c-.099-.289-.201-.577-.328-.852-2.937-7.804-6.992-15.198-12.102-21.899 0 0-34.13-44.773-34.3-45.005h21.161c7.572 0 14.701-3.331 19.56-9.139 4.858-5.808 6.879-13.412 5.542-20.864-2.183-12.178-12.74-21.018-25.103-21.018h-19.321c-6.343 0-12.599 1.349-18.371 3.901l-8.957-31.084c-8.806-30.556-37.166-51.897-68.966-51.897h-138.92c-4.142 0-7.5 3.358-7.5 7.5s3.358 7.5 7.5 7.5h138.92c25.154 0 47.587 16.881 54.553 41.051l18.369 63.741c2.103 7.298 5.505 14.062 10.113 20.103l8.422 11.042-36.324 19.626c-4.136 2.235-7.071 6.155-8.05 10.754-2.003 9.408 4.676 14.765 5.79 16.766 8.161 10.608 20.807 16.571 33.799 16.57 4.139 0 8.315-.605 12.389-1.859l12.595-3.874c5.401-1.661 11.12-2.287 16.762-1.889 2.203 7.381 3.232 15.116 2.954 22.897l-.376 10.537c-.148 4.14 3.088 7.615 7.228 7.763.091.003.182.005.272.005 4.019 0 7.346-3.184 7.49-7.233l.376-10.537c.398-11.15-1.598-22.161-5.177-32.606zm-44.889-103.776h19.321c5.09 0 9.438 3.644 10.338 8.664.55 3.069-.281 6.2-2.282 8.592s-4.938 3.764-8.055 3.764h-28.436l-5.046-17.51c4.363-2.293 9.223-3.51 14.16-3.51zm10.95 100.503-12.595 3.874c-10.916 3.358-22.927-.47-29.89-9.52l-2.819-3.665c-.189-.247-.253-.526-.188-.83.064-.304.236-.533.51-.681l38.402-20.75 16.162 21.191c1.9 2.491 3.622 5.098 5.166 7.799-5 .26-9.968 1.111-14.748 2.582z" fill="#1273eb" data-original="#000000" style="" class=""/><path d="m503.093 331.146c-4.122-.151-7.615 3.088-7.763 7.228l-.327 9.177h-109.163l-40.265-50.776c-6.187-7.802-15.446-12.277-25.403-12.277h-128.343c-9.958 0-19.217 4.475-25.403 12.277l-40.265 50.776h-109.164l-1.956-54.699c-.278-7.78.75-15.514 2.953-22.893 5.643-.398 11.362.227 16.763 1.888l12.595 3.874c4.076 1.253 8.25 1.859 12.389 1.859 12.991 0 25.639-5.963 33.799-16.57l2.818-3.664c2.867-3.727 3.95-8.502 2.971-13.101-.98-4.599-3.914-8.518-8.05-10.753l-36.32-19.625 8.424-11.045c4.605-6.048 8.007-12.813 10.11-20.106l18.37-63.742c6.964-24.168 29.394-41.047 54.545-41.047h45.261c4.142 0 7.5-3.358 7.5-7.5s-3.358-7.5-7.5-7.5h-45.261c-31.797 0-60.154 21.34-68.958 51.894l-8.96 31.09c-5.774-2.553-12.031-3.902-18.374-3.902h-19.32c-12.363 0-22.92 8.839-25.103 21.017-1.336 7.452.684 15.057 5.542 20.864 4.859 5.809 11.989 9.14 19.561 9.14h21.166c-.171.233-.334.471-.509.702l-33.79 44.3c-5.114 6.702-9.171 14.098-12.11 21.906-.126.273-.227.557-.325.843-3.583 10.444-5.577 21.456-5.178 32.61l2.61 72.977c.519 14.773 9.994 27.046 23.136 31.715v33.492c0 9.65 7.851 17.5 17.5 17.5h55.841c9.65 0 17.5-7.851 17.5-17.5v-31.47h220.154c.865 13.003 11.712 23.32 24.931 23.32 13.218 0 24.067-10.317 24.931-23.32h8.709v31.47c0 9.65 7.851 17.5 17.5 17.5h55.841c9.65 0 17.5-7.851 17.5-17.5v-33.525c13.235-4.746 22.625-17.196 23.136-31.678l.402-11.259c0-.02.003-.039.003-.059l.575-16.142c.149-4.142-3.087-7.618-7.226-7.766zm-324.914-25.051c3.324-4.192 8.299-6.596 13.65-6.596h128.343c5.35 0 10.325 2.404 13.65 6.597l32.874 41.456h-50.215v-24.782c0-5.79-4.711-10.5-10.5-10.5h-99.962c-5.79 0-10.5 4.711-10.5 10.5v24.782h-50.215zm32.34 41.457v-20.282h90.962v20.282zm-187.779-173.288c-2.001-2.391-2.833-5.523-2.282-8.592.9-5.02 5.248-8.664 10.338-8.664h19.32c4.937 0 9.798 1.217 14.163 3.511l-5.046 17.509h-28.437c-3.118 0-6.054-1.372-8.056-3.764zm23.01 51.677 38.398 20.748c.273.147.445.376.51.681.065.304.001.584-.188.831l-2.818 3.664c-6.963 9.051-18.975 12.876-29.89 9.52l-12.595-3.874c-4.779-1.47-9.748-2.321-14.747-2.581 1.545-2.702 3.269-5.31 5.17-7.802zm55.887 205.632c0 1.378-1.122 2.5-2.5 2.5h-55.841c-1.378 0-2.5-1.122-2.5-2.5v-31.47h60.841zm260.085-23.151c-5.51 0-9.993-4.483-9.993-9.993s4.483-9.993 9.993-9.993 9.993 4.483 9.993 9.993c.001 5.51-4.482 9.993-9.993 9.993zm106.982 25.651h-55.841c-1.378 0-2.5-1.122-2.5-2.5v-31.47h60.842v31.47c-.001 1.379-1.122 2.5-2.501 2.5zm8.835-49.219c-1.051.165-2.109.249-3.145.249h-91.543c-4.433-7.004-12.244-11.667-21.129-11.667-8.884 0-16.695 4.663-21.128 11.667h-302.988c-10.81 0-19.575-8.462-19.955-19.268l-.117-3.282h476.934l-.117 3.286c-.338 9.538-7.408 17.536-16.812 19.015z" fill="#1273eb" data-original="#000000" style="" class=""/><path d="m243.851 217.961h24.299c4.142 0 7.5-3.358 7.5-7.5s-3.358-7.5-7.5-7.5h-16.799v-34.368c0-4.142-3.358-7.5-7.5-7.5s-7.5 3.358-7.5 7.5v41.868c0 4.142 3.358 7.5 7.5 7.5z" fill="#1273eb" data-original="#000000" style="" class=""/><path d="m208.639 250.957h94.723c7.758 0 14.069-6.311 14.069-14.069v-18.219h28.651c23.881 0 47.249-7.31 67.575-21.136 7.799-5.296 11.278-14.977 8.654-24.092l-14.66-50.861c-5.371-18.637-22.665-31.653-42.057-31.653h-219.186c-19.391 0-36.686 13.016-42.057 31.653l-14.661 50.863c-2.623 9.112.855 18.793 8.65 24.086 20.331 13.829 43.7 21.139 67.579 21.139h28.652v18.219c-.001 7.759 6.31 14.07 14.068 14.07zm93.791-15h-92.86v-92.86h92.86zm-136.512-32.288c-20.859 0-41.31-6.412-59.148-18.545-2.419-1.643-3.49-4.669-2.667-7.528l14.66-50.861c3.531-12.251 14.899-20.808 27.644-20.808h219.184c12.745 0 24.113 8.556 27.644 20.808l14.66 50.858c.824 2.862-.248 5.888-2.671 7.534-17.832 12.13-38.283 18.541-59.143 18.541h-28.651v-61.504c0-7.757-6.311-14.069-14.069-14.069h-94.723c-7.757 0-14.069 6.311-14.069 14.069v61.504h-28.651z" fill="#1273eb" data-original="#000000" style="" class=""/></g></g></svg>
