<?xml version="1.0"?>
<svg xmlns="http://www.w3.org/2000/svg" xmlns:xlink="http://www.w3.org/1999/xlink" xmlns:svgjs="http://svgjs.com/svgjs" version="1.1" width="512" height="512" x="0" y="0" viewBox="0 0 512 512" style="enable-background:new 0 0 512 512" xml:space="preserve" class=""><g><g xmlns="http://www.w3.org/2000/svg"><path d="m512 256c0 120.46-83.21 221.5-195.29 248.76h-.01c-35.3-28.91-86.1-28.91-121.4 0-112.08-27.26-195.3-128.29-195.3-248.76 0-46.22 12.25-89.57 33.68-127 44.12-77.07 127.16-129 222.32-129s178.2 51.93 222.32 129c21.43 37.43 33.68 80.78 33.68 127z" fill="#bf77f2" data-original="#bf77f2" style="" class=""/><path d="m512 256c0 120.47-83.22 221.49-195.29 248.76h-.01c-35.3-28.91-86.1-28.91-121.4 0-112.08-27.26-195.3-128.29-195.3-248.76 0-46.22 12.25-89.57 33.68-127 44.12 77.07 127.16 129 222.32 129s178.2-51.93 222.32-129c21.43 37.43 33.68 80.78 33.68 127z" fill="#5376db" data-original="#a253db" style="" class=""/><g><g><g><path d="m225.127 190.899c0 1.991-1.881 3.421-3.812 2.937-6.786-1.701-11.812-7.842-11.812-15.156v-4.665c0-4.314 3.498-7.812 7.812-7.812 4.314 0 7.812 3.497 7.812 7.812z" fill="#ffa87a" data-original="#ffa87a" style="" class=""/><path d="m285.263 190.899c0 1.991 1.881 3.421 3.812 2.937 6.786-1.701 11.812-7.842 11.812-15.156v-4.665c0-4.314-3.498-7.812-7.812-7.812-4.315 0-7.812 3.497-7.812 7.812z" fill="#e3835a" data-original="#e3835a" style=""/></g><g><g><g><path d="m316.7 401.37v103.39c-19.46 4.73-39.79 7.24-60.7 7.24s-41.24-2.51-60.7-7.24v-103.39l60.71-40.91z" fill="#22d7ff" data-original="#22d7ff" style=""/><path d="m316.71 401.37v103.39h-.01c-19.46 4.73-39.78 7.24-60.69 7.24v-151.54z" fill="#00b3ff" data-original="#00b3ff" style=""/></g></g><path d="m346.665 287.675v23.92h-29.96v89.78h-121.41v-89.78h-29.96v-23.92c0-5.88.91-11.7 2.66-17.24 1.75-5.55 4.35-10.82 7.73-15.64 12.27-17.45 32.27-27.83 53.6-27.83h53.36c21.32 0 41.32 10.38 53.59 27.83 6.76 9.63 10.39 21.11 10.39 32.88z" fill="#ffffff" data-original="#ffffff" style=""/><path d="m346.665 287.675v23.92h-29.96v89.78h-60.7v-174.41h26.68c21.32 0 41.32 10.38 53.59 27.83 6.76 9.63 10.39 21.11 10.39 32.88z" fill="#cff6ff" data-original="#cff6ff" style=""/><path d="m316.703 296.749v98.191c0 8.275 6.708 14.983 14.983 14.983 8.275 0 14.983-6.708 14.983-14.983v-98.191z" fill="#ffc0a4" data-original="#ffc0a4" style="" class=""/></g><g><g><path d="m279.331 226.96c0 12.876-10.448 23.324-23.324 23.324s-23.324-10.448-23.324-23.324c2.827 0 5.119-2.292 5.119-5.119v-27.168h35.152v27.168c0 2.827 2.292 5.119 5.119 5.119z" fill="#ffa87a" data-original="#ffa87a" style="" class=""/><path d="m279.331 226.96c0 12.876-10.448 23.324-23.324 23.324v-55.611h16.947v27.168c0 2.827 2.292 5.119 5.119 5.119z" fill="#e3835a" data-original="#e3835a" style=""/></g><path d="m288.643 172.24v14.222c0 18.153-14.553 32.898-32.636 33.178-.175.018-.367.018-.542.018-18.327 0-33.178-14.868-33.178-33.196v-14.222c0-18.345 14.851-33.195 33.178-33.195.175 0 .367 0 .542.018 17.803.28 32.165 14.554 32.619 32.304.017.296.017.576.017.873z" fill="#ffc0a4" data-original="#ffc0a4" style="" class=""/><path d="m288.643 172.24v14.222c0 18.153-14.553 32.898-32.636 33.178v-80.578c17.803.28 32.165 14.554 32.619 32.304.017.297.017.577.017.874z" fill="#ffa87a" data-original="#ffa87a" style="" class=""/></g><path d="m165.33 296.749v98.191c0 8.275 6.708 14.983 14.983 14.983 8.275 0 14.983-6.708 14.983-14.983v-98.191z" fill="#ffc0a4" data-original="#ffc0a4" style="" class=""/><path d="m294.695 164.295v1.91l-4.97 6.03c-13.5-7.81-24.86-18.85-33.06-32.12l-.66-1.05-.65 1.05c-4.11 6.64-9 12.71-14.55 18.11-5.56 5.39-11.77 10.11-18.52 14.01l-4.97-6.03v-1.91c0-21.37 17.32-38.7 38.69-38.7s38.69 17.33 38.69 38.7z" fill="#63455d" data-original="#63455d" style="" class=""/><path d="m294.695 164.295v1.91l-4.97 6.03c-13.5-7.81-24.86-18.85-33.06-32.12l-.66-1.05v-13.47c21.37 0 38.69 17.33 38.69 38.7z" fill="#53354b" data-original="#53354b" style=""/></g><g><g><path d="m256.396 64.07c0 8.404-6.993 14.292-17.85 14.292-4.672 0-9.464-1.108-13.414-2.948-2.638-1.229-3.673-4.451-2.325-7.03l.371-.71c1.417-2.711 4.844-3.555 7.416-1.899 2.168 1.395 4.434 2.099 6.785 2.099 3.374 0 5.091-1.227 5.091-3.742s-1.717-3.803-5.091-3.803h-2.871c-2.852 0-5.164-2.312-5.164-5.164 0-1.404.572-2.747 1.583-3.721l6.575-6.328h-9.447c-2.846 0-5.153-2.307-5.153-5.153 0-2.846 2.307-5.153 5.153-5.153h20.75c3.04 0 5.504 2.464 5.504 5.504 0 1.571-.672 3.068-1.846 4.112l-8.153 7.252 1.963.429c5.891 1.29 10.123 5.522 10.123 11.963z" fill="#ffffff" data-original="#ffffff" style=""/><path d="m295.59 40.699v2.231c0 .834-.174 1.66-.51 2.424l-12.692 28.807c-.961 2.18-3.118 3.588-5.501 3.588h-1.888c-4.342 0-7.252-4.463-5.501-8.436l10.451-23.706h-7.361c0 3.32-2.691 6.011-6.011 6.011h-.491c-3.32 0-6.011-2.691-6.011-6.011v-4.907c0-3.32 2.691-6.012 6.011-6.012h23.493c3.319 0 6.011 2.691 6.011 6.011z" fill="#cff6ff" data-original="#cff6ff" style=""/></g><circle cx="299.563" cy="26.633" fill="#cff6ff" r="6.819" data-original="#cff6ff" style=""/></g><g><path d="m150.71 201.987h-27v-96.95h96.96v27h-69.96z" fill="#ffffff" data-original="#ffffff" style=""/><path d="m123.71 269.75h264.58v27h-264.58z" fill="#fe3244" data-original="#fe3244" style="" class=""/><path d="m388.29 201.987h-27v-69.95h-69.96v-27h96.96z" fill="#cff6ff" data-original="#cff6ff" style=""/><path d="m220.67 458.397h-96.96v-96.949h27v69.949h69.96z" fill="#ffffff" data-original="#ffffff" style=""/><path d="m388.29 458.397h-96.96v-27h69.96v-69.949h27z" fill="#cff6ff" data-original="#cff6ff" style=""/></g><path d="m256.01 269.75h132.28v27h-132.28z" fill="#de1263" data-original="#de1263" style=""/></g></g></g></svg>
