<?xml version="1.0"?>
<svg xmlns="http://www.w3.org/2000/svg" xmlns:xlink="http://www.w3.org/1999/xlink" xmlns:svgjs="http://svgjs.com/svgjs" version="1.1" width="512" height="512" x="0" y="0" viewBox="0 0 512 512" style="enable-background:new 0 0 512 512" xml:space="preserve" class=""><g><polygon xmlns="http://www.w3.org/2000/svg" points="336 264 336 288 176 288 176 264 160 264 160 328 176 328 176 304 336 304 336 328 352 328 352 264 336 264" fill="#1273eb" data-original="#000000" style="" class=""/><path xmlns="http://www.w3.org/2000/svg" d="M216,104H192a8,8,0,0,0-8,8v26.194l-16,20V128a24.027,24.027,0,0,0-24-24H104V96a42.678,42.678,0,0,0,25.845-9.338C138.205,80.056,143,71.067,143,62V32h0V8a8,8,0,0,0-8-8H73A40.046,40.046,0,0,0,33,40v64H23.981A23.971,23.971,0,0,0,.009,126.858q-.009.19-.009.38V304a8,8,0,0,0,8,8h8v32a8,8,0,0,0,8,8H40V504a8,8,0,0,0,8,8H152a8,8,0,0,0,4.116-14.86L120,475.471V352h8a8,8,0,0,0,8-8V240h24a8,8,0,0,0,6.41-3.214l56-75A8,8,0,0,0,224,157V112A8,8,0,0,0,216,104ZM104,80H96a8,8,0,0,0-8,8v16H80V52.18L97.509,40H127V62C127,71.525,114.139,80,104,80ZM72,352V480a8,8,0,0,0,3.2,6.4l4.957,3.718A33.131,33.131,0,0,1,68.2,496H56V352Zm35.884,134.86,9.089,5.453a33.072,33.072,0,0,1-4.338,2.163L88,476V352h16V480A8,8,0,0,0,107.884,486.86ZM208,154.343,155.989,224H136V148H120V248H48V168H32V296H16V127.461A7.99,7.99,0,0,1,23.981,120H33v24a8,8,0,0,0,8,8H72a8,8,0,0,0,8-8V120h64a8.009,8.009,0,0,1,8,8v53a8,8,0,0,0,14.247,5l32-40A8,8,0,0,0,200,141V120h8Z" fill="#1273eb" data-original="#000000" style="" class=""/><path xmlns="http://www.w3.org/2000/svg" d="M288,112v45a8,8,0,0,0,1.59,4.786l56,75A8,8,0,0,0,352,240h24V344a8,8,0,0,0,8,8h8V475.471L355.884,497.14A8,8,0,0,0,360,512H464a8,8,0,0,0,8-8V352h16a8,8,0,0,0,8-8V312h8a8,8,0,0,0,8-8V127.239q0-.19-.009-.38A23.971,23.971,0,0,0,488.019,104H479V40A40.046,40.046,0,0,0,439,0H377a8,8,0,0,0-8,8V32h0V62c0,9.067,4.795,18.056,13.155,24.662A42.678,42.678,0,0,0,408,96v8H368a24.027,24.027,0,0,0-24,24v30.194l-16-20V112a8,8,0,0,0-8-8H296A8,8,0,0,0,288,112Zm97-50V40h29.491L432,52.18V104h-8V88a8,8,0,0,0-8-8h-8C397.861,80,385,71.525,385,62Zm71,290V496H443.8a33.131,33.131,0,0,1-11.957-5.882L436.8,486.4A8,8,0,0,0,440,480V352ZM408,480V352h16V476l-24.635,18.477a33.072,33.072,0,0,1-4.338-2.163l9.089-5.453A8,8,0,0,0,408,480ZM304,120h8v21a8,8,0,0,0,1.753,5l32,40A8,8,0,0,0,360,181V128a8.009,8.009,0,0,1,8-8h64v24a8,8,0,0,0,8,8h31a8,8,0,0,0,8-8V120h9.019A7.99,7.99,0,0,1,496,127.461V296H480V168H464v80H392V148H376v76H356.011L304,154.343Z" fill="#1273eb" data-original="#000000" style="" class=""/></g></svg>
